<svg id="Layer_1" data-name="Layer 1" xmlns="http://www.w3.org/2000/svg" xmlns:xlink="http://www.w3.org/1999/xlink" viewBox="0 0 100 100"><defs><style>.cls-1{fill:url(#linear-gradient);}.cls-2{fill:url(#linear-gradient-2);}</style><linearGradient id="linear-gradient" x1="5" y1="50" x2="95" y2="50" gradientUnits="userSpaceOnUse"><stop offset="0" stop-color="#f2d9c2"/><stop offset="0.3" stop-color="#8c6649"/><stop offset="1" stop-color="#aa8566"/></linearGradient><linearGradient id="linear-gradient-2" x1="5" y1="50" x2="95" y2="50" gradientUnits="userSpaceOnUse"><stop offset="0" stop-color="#d6b696"/><stop offset="0.34" stop-color="#563925"/><stop offset="0.68" stop-color="#f2d9c2"/><stop offset="1" stop-color="#8c6649"/></linearGradient></defs><path class="cls-1" d="M51.27,51.43a1.13,1.13,0,0,0-1.15-1.66,68.1,68.1,0,0,1-8.81.58q-9.84,0-16.77-4.42-8.09-5.22-8.09-14.51a19,19,0,0,1,8.49-16.37q7.57-5.33,18.33-5.33Q59.19,9.72,70.81,22a1.13,1.13,0,0,0,1.56.08q11.53-9.78,17.41-9.79a5.29,5.29,0,0,1,3.74,1.38A4.76,4.76,0,0,1,95,17.31Q95,26,82.09,35.49A100,100,0,0,1,61.78,46.88a1.13,1.13,0,0,0-.57.53Q51.7,66.33,40,76.16a1.14,1.14,0,0,0,.31,1.92c6.58,2.65,10.34,4.3,15.25,6.27a67.28,67.28,0,0,0,9.77,3.13,87.09,87.09,0,0,0,10.72,1.84c1.27.14,3.79,0,3.24.7-.8,1-21.33-1.25-24.84-2.27-3.86-1.11-10.14-3.57-19.76-7.18a1.12,1.12,0,0,0-1,.08Q24.65,85.7,17,85.71a20.55,20.55,0,0,1-7.53-1.26Q5,82.7,5,79q0-6.27,10.4-6.28,6.33,0,19.08,3.56a1.15,1.15,0,0,0,1-.22Q40.47,71.93,51.27,51.43ZM29.6,80.62a1.14,1.14,0,0,0-.24-2q-10-3.47-15-3.47c-4.82,0-7.23,1.38-7.23,4.12q0,2.67,3.82,4.12a17.2,17.2,0,0,0,6.07,1.05A23.19,23.19,0,0,0,29.6,80.62ZM55,44.43A111.57,111.57,0,0,1,69.71,24.64a1.13,1.13,0,0,0,0-1.55Q58.64,11,43,11A29.26,29.26,0,0,0,26.65,15.5q-7.93,5.22-7.94,14.16,0,8.34,9.44,13.06,6.48,3.21,16.07,3.21a64,64,0,0,0,10-1A1.13,1.13,0,0,0,55,44.43Zm9.56-4.07A1.14,1.14,0,0,0,66,41.92a68.77,68.77,0,0,0,19.16-11Q91.55,25.53,93,20.78c1.62-5.18-1.41-8.1-6.53-6.29q-5.3,1.88-12.23,10.16a1.13,1.13,0,0,0,0,1.4q3.19,4.41,3.19,5.67a2.16,2.16,0,0,1,0,.35.21.21,0,0,1-.1.15h0a.22.22,0,0,1-.29,0c-.94-1.24-2-2.65-3.26-4.25a1.14,1.14,0,0,0-1.84,0A91.68,91.68,0,0,0,64.55,40.36Z"/><path class="cls-2" d="M51.27,51.43a1.13,1.13,0,0,0-1.15-1.66,68.1,68.1,0,0,1-8.81.58q-9.84,0-16.77-4.42-8.09-5.22-8.09-14.51a19,19,0,0,1,8.49-16.37q7.57-5.33,18.33-5.33Q59.19,9.72,70.81,22a1.13,1.13,0,0,0,1.56.08q11.53-9.78,17.41-9.79a5.29,5.29,0,0,1,3.74,1.38A4.76,4.76,0,0,1,95,17.31Q95,26,82.09,35.49A100,100,0,0,1,61.78,46.88a1.13,1.13,0,0,0-.57.53Q51.7,66.33,40,76.16a1.14,1.14,0,0,0,.31,1.92c6.58,2.65,10.34,4.3,15.25,6.27a67.28,67.28,0,0,0,9.77,3.13,87.09,87.09,0,0,0,10.72,1.84c1.27.14,3.79,0,3.24.7-.8,1-21.33-1.25-24.84-2.27-3.86-1.11-10.14-3.57-19.76-7.18a1.12,1.12,0,0,0-1,.08Q24.65,85.7,17,85.71a20.55,20.55,0,0,1-7.53-1.26Q5,82.7,5,79q0-6.27,10.4-6.28,6.33,0,19.08,3.56a1.15,1.15,0,0,0,1-.22Q40.47,71.93,51.27,51.43ZM29.6,80.62a1.14,1.14,0,0,0-.24-2q-10-3.47-15-3.47c-4.82,0-7.23,1.38-7.23,4.12q0,2.67,3.82,4.12a17.2,17.2,0,0,0,6.07,1.05A23.19,23.19,0,0,0,29.6,80.62ZM55,44.43A111.57,111.57,0,0,1,69.71,24.64a1.13,1.13,0,0,0,0-1.55Q58.64,11,43,11A29.26,29.26,0,0,0,26.65,15.5q-7.93,5.22-7.94,14.16,0,8.34,9.44,13.06,6.48,3.21,16.07,3.21a64,64,0,0,0,10-1A1.13,1.13,0,0,0,55,44.43Zm9.56-4.07A1.14,1.14,0,0,0,66,41.92a68.77,68.77,0,0,0,19.16-11Q91.55,25.53,93,20.78c1.62-5.18-1.41-8.1-6.53-6.29q-5.3,1.88-12.23,10.16a1.13,1.13,0,0,0,0,1.4q3.19,4.41,3.19,5.67a2.16,2.16,0,0,1,0,.35.21.21,0,0,1-.1.15h0a.22.22,0,0,1-.29,0c-.94-1.24-2-2.65-3.26-4.25a1.14,1.14,0,0,0-1.84,0A91.68,91.68,0,0,0,64.55,40.36Z"/></svg>